<?xml version="1.0" standalone="no"?>
<!DOCTYPE svg PUBLIC "-//W3C//DTD SVG 20010904//EN"
 "http://www.w3.org/TR/2001/REC-SVG-20010904/DTD/svg10.dtd">
<svg version="1.0" xmlns="http://www.w3.org/2000/svg"
 width="505.000000pt" height="505.000000pt" viewBox="0 0 505.000000 505.000000"
 preserveAspectRatio="xMidYMid meet">
<metadata>
Created by potrace 1.14, written by Peter Selinger 2001-2017
</metadata>
<g transform="translate(0.000000,505.000000) scale(0.100000,-0.100000)"
fill="#000000" stroke="none">
<path d="M2345 4909 c-179 -17 -514 -94 -755 -173 -394 -129 -730 -302 -965
-497 -111 -92 -304 -290 -368 -378 -98 -133 -167 -307 -167 -418 0 -46 -3 -44
81 -58 80 -12 164 -70 318 -218 228 -221 499 -578 632 -833 56 -107 64 -141
24 -104 -14 13 -25 21 -25 17 0 -20 24 -61 55 -96 30 -33 42 -60 71 -166 19
-70 32 -130 29 -135 -3 -5 -29 -16 -58 -25 -168 -55 -346 -135 -462 -209 -141
-91 -312 -264 -346 -352 -21 -55 -29 -147 -18 -201 21 -106 140 -244 284 -331
33 -19 74 -46 90 -58 84 -62 274 -124 378 -124 24 0 53 -7 65 -16 12 -8 22
-10 22 -5 0 15 45 14 57 -1 6 -7 13 -24 16 -38 7 -26 97 -121 182 -189 53 -44
268 -153 336 -171 44 -12 89 -6 101 13 4 7 5 44 1 82 -5 59 -3 74 13 93 24 29
77 41 179 42 101 0 150 -14 302 -84 143 -66 186 -71 272 -31 102 48 181 114
401 334 167 167 277 295 366 421 l55 79 135 65 c74 36 155 79 180 95 25 17 47
31 50 31 6 0 100 66 159 112 72 56 229 212 292 291 54 65 79 85 66 50 -13 -33
-55 -108 -71 -127 -17 -19 -16 -19 8 -3 50 32 158 173 208 272 38 77 91 214
119 307 24 82 27 110 27 233 0 160 -20 266 -65 357 -16 32 -29 62 -29 68 0 6
33 31 72 57 78 50 174 83 248 84 41 0 43 1 20 11 -53 22 -316 -5 -383 -39 -27
-14 -29 -13 -77 36 -56 58 -120 93 -203 112 -80 19 -73 48 21 89 93 41 154
124 165 225 l5 50 -31 -40 c-90 -115 -159 -160 -275 -176 -42 -6 -99 -21 -127
-34 -44 -20 -70 -24 -205 -28 -98 -3 -198 -12 -273 -26 -65 -12 -130 -21 -145
-19 -26 4 -25 5 18 26 l45 22 -32 0 c-18 0 -72 -14 -120 -31 -200 -69 -199
-69 -232 -15 -71 114 -121 378 -121 634 0 238 65 738 128 992 13 52 16 80 9
91 -15 24 -106 49 -211 60 -108 10 -428 9 -541 -2z m2058 -1597 c-31 -61 -94
-113 -160 -131 -71 -20 -128 -82 -167 -181 -31 -78 -58 -97 -156 -109 -47 -5
-55 -9 -58 -28 -2 -13 -12 -29 -23 -37 -15 -10 -17 -16 -8 -21 8 -6 7 -10 -5
-17 -19 -11 -63 12 -73 38 -10 27 8 84 42 129 19 25 35 54 35 64 0 11 5 23 10
26 6 3 10 -4 10 -16 0 -21 2 -20 23 9 56 75 128 120 261 161 94 29 184 80 240
135 28 28 53 47 55 43 2 -5 -10 -34 -26 -65z m307 -346 c0 -3 -37 -29 -82 -59
-76 -50 -177 -141 -237 -212 -40 -48 -119 -184 -142 -244 -11 -31 -32 -103
-46 -160 -32 -135 -65 -203 -129 -266 -65 -66 -131 -98 -210 -103 -72 -5 -117
14 -142 60 -16 29 -19 30 -72 24 -71 -7 -159 -35 -247 -80 -77 -38 -108 -69
-118 -118 -4 -17 -22 -51 -41 -75 -58 -76 -68 -164 -24 -211 12 -13 43 -26 80
-33 35 -7 60 -17 60 -24 0 -22 -80 -134 -113 -159 -54 -41 -240 -134 -282
-142 -39 -7 -85 -37 -153 -99 -43 -39 -62 -75 -62 -120 0 -48 28 -58 150 -53
72 4 105 10 138 27 24 12 46 21 48 19 2 -2 -12 -27 -31 -55 -34 -51 -127 -133
-150 -133 -8 0 -21 -3 -31 -7 -14 -5 -16 -2 -12 15 7 26 5 25 -77 -38 -57 -44
-61 -45 -126 -44 -80 2 -117 20 -126 64 -6 35 -15 36 -138 19 -155 -20 -198
-44 -236 -125 -22 -49 -40 -50 -39 -1 1 18 -2 53 -6 80 -10 73 39 208 110 302
41 53 50 85 36 135 -13 50 -42 61 -76 29 -23 -22 -24 -22 -24 -3 0 42 35 121
76 174 52 67 71 109 79 181 10 79 32 160 58 216 39 83 146 233 147 207 0 -6
-6 -17 -14 -23 -8 -6 -24 -39 -36 -72 -18 -46 -22 -73 -17 -117 18 -193 149
-250 278 -121 82 82 111 193 114 439 2 91 6 174 11 185 14 36 83 133 127 178
37 40 179 147 192 147 14 0 167 110 227 163 85 75 119 119 135 177 l13 45 -4
-40 c-4 -45 -59 -189 -79 -209 -7 -8 -28 -21 -47 -31 -19 -10 -60 -43 -90 -74
-74 -74 -111 -166 -118 -295 -7 -128 8 -184 67 -247 42 -46 52 -52 97 -56 46
-5 54 -3 77 23 20 21 25 34 19 49 -15 43 -6 119 22 175 33 66 92 140 111 140
7 0 23 14 35 30 19 26 67 60 85 60 4 0 -9 -19 -28 -42 -72 -88 -100 -227 -55
-275 49 -52 191 -17 298 72 75 62 192 178 235 230 64 78 80 105 109 182 44
116 88 171 185 230 80 50 241 108 241 89z m-3087 -2356 c98 -44 187 -180 117
-180 -11 0 -17 -7 -16 -17 2 -31 -51 -28 -121 8 -47 24 -84 54 -136 111 -67
74 -74 79 -104 73 -36 -6 -52 8 -26 25 29 18 233 3 286 -20z"/>
</g>
</svg>
